<svg xmlns="http://www.w3.org/2000/svg" version="1.2" baseProfile="tiny-ps" viewBox="0 0 1024 1024"><title>Men of Apollo</title><rect width="1024" height="1024" fill="#000000"/><g transform="translate(0.000000,1024.000000) scale(0.100000,-0.100000)"
fill="#FFFFFF" stroke="none">
<path d="M5130 9125 c-34 -9 -47 -18 -56 -41 -7 -16 -33 -49 -58 -74 -28 -27
-46 -53 -46 -67 0 -13 -10 -33 -22 -45 -43 -43 -70 -91 -77 -140 -5 -27 -18
-59 -30 -71 -11 -13 -21 -33 -21 -45 0 -12 -10 -32 -22 -44 -15 -15 -23 -38
-26 -74 -3 -39 -11 -59 -28 -75 -13 -12 -24 -33 -24 -47 0 -13 -11 -37 -25
-54 -14 -16 -25 -40 -25 -52 0 -13 -9 -31 -19 -40 -11 -10 -23 -32 -27 -50 -3
-17 -24 -52 -46 -79 -36 -43 -41 -55 -49 -125 -6 -56 -14 -81 -28 -92 -10 -8
-21 -31 -25 -50 -3 -20 -15 -43 -26 -53 -11 -9 -20 -28 -20 -42 0 -17 -16 -43
-46 -76 -44 -46 -46 -50 -30 -67 24 -27 20 -40 -19 -56 -39 -17 -41 -22 -20
-50 13 -17 12 -22 -10 -48 -14 -16 -25 -40 -25 -52 0 -13 -9 -31 -19 -40 -11
-10 -23 -32 -27 -49 -3 -17 -24 -52 -45 -77 -44 -52 -45 -57 -23 -81 14 -15
14 -19 -4 -36 -11 -10 -25 -36 -31 -58 -8 -31 -18 -43 -41 -52 -25 -9 -30 -16
-28 -40 1 -16 -10 -50 -25 -77 -21 -38 -24 -52 -16 -68 15 -28 8 -40 -32 -53
-28 -10 -34 -17 -34 -42 0 -17 -11 -42 -27 -61 -21 -25 -28 -47 -34 -101 -5
-55 -12 -75 -30 -92 -14 -13 -24 -34 -24 -49 0 -15 -10 -39 -21 -54 -12 -15
-24 -48 -27 -73 -4 -38 -10 -48 -38 -65 -32 -19 -54 -63 -54 -109 0 -9 -10
-29 -22 -44 -12 -15 -25 -50 -29 -77 -5 -28 -18 -61 -33 -78 -31 -37 -41 -69
-27 -83 14 -14 -5 -47 -27 -47 -38 0 -59 -26 -39 -47 22 -25 22 -36 -3 -58
-11 -10 -20 -28 -20 -41 0 -12 -11 -36 -25 -52 -14 -17 -25 -40 -25 -52 0 -12
-11 -35 -25 -52 -14 -16 -25 -40 -25 -52 0 -13 -9 -31 -19 -40 -10 -10 -22
-32 -25 -50 -4 -18 -15 -41 -26 -51 -11 -10 -20 -28 -20 -41 0 -19 -34 -92
-86 -186 -7 -11 -15 -49 -19 -84 -6 -58 -10 -66 -36 -79 -30 -16 -35 -30 -19
-55 6 -11 3 -22 -14 -40 -13 -14 -27 -38 -30 -54 -4 -16 -18 -42 -30 -57 -13
-15 -34 -49 -46 -76 -13 -26 -32 -58 -43 -70 -14 -16 -21 -41 -25 -92 -4 -57
-9 -74 -28 -92 -14 -13 -24 -34 -24 -49 0 -15 -9 -35 -19 -44 -10 -10 -24 -37
-30 -62 -6 -24 -15 -44 -20 -44 -22 0 -53 -73 -42 -98 14 -30 8 -39 -29 -47
-38 -8 -46 -22 -26 -44 21 -23 20 -34 -3 -55 -10 -10 -22 -32 -25 -50 -4 -18
-15 -41 -26 -51 -11 -10 -20 -28 -20 -40 0 -22 -45 -87 -77 -111 -17 -12 -17
-13 0 -31 22 -25 22 -36 -3 -58 -11 -10 -20 -30 -20 -45 0 -15 -10 -36 -25
-50 -14 -13 -25 -35 -25 -48 0 -15 -18 -46 -45 -78 -26 -30 -45 -62 -45 -76 0
-14 -11 -35 -25 -48 -14 -13 -24 -33 -24 -44 4 -49 -2 -76 -25 -103 -14 -17
-26 -48 -31 -80 -4 -29 -11 -56 -16 -59 -18 -11 -59 -84 -59 -104 0 -25 -33
-92 -54 -109 -9 -8 -16 -24 -16 -37 0 -25 -49 -126 -75 -154 -8 -9 -15 -26
-15 -37 0 -11 -9 -32 -20 -46 -11 -14 -20 -36 -20 -49 0 -13 -11 -39 -25 -58
-14 -19 -25 -39 -25 -46 0 -7 -11 -25 -24 -41 -16 -20 -27 -52 -36 -111 -9
-59 -17 -85 -30 -92 -10 -5 -22 -29 -29 -54 -6 -24 -17 -46 -25 -49 -7 -3 -16
-20 -20 -39 -3 -20 -23 -52 -49 -78 -75 -80 -137 -157 -137 -171 0 -65 -34
-106 -60 -74 -16 19 -35 5 -44 -33 -7 -33 -79 -92 -112 -92 -14 0 -27 -7 -30
-15 -3 -8 -25 -20 -48 -26 -22 -6 -50 -19 -61 -29 -17 -14 -46 -18 -172 -23
-111 -5 -162 -11 -190 -23 -21 -10 -74 -20 -117 -24 -98 -8 -106 -17 -106
-115 0 -78 9 -95 50 -95 14 0 37 -10 50 -23 25 -22 25 -22 1435 -25 775 -2
1438 0 1473 3 167 17 179 254 12 255 -33 0 -73 8 -99 20 -31 14 -76 22 -150
27 -64 3 -116 11 -132 20 -22 13 -30 13 -70 0 -40 -14 -46 -14 -64 2 -11 10
-39 23 -61 29 -72 21 -134 97 -136 169 -5 170 4 277 28 329 13 28 24 65 24 81
0 17 8 41 19 54 10 13 22 47 26 76 4 31 14 58 26 69 10 9 19 28 19 41 0 13 11
40 24 61 16 25 26 59 30 102 4 42 13 75 26 92 11 15 23 49 26 75 4 27 15 57
24 68 10 11 21 35 25 54 7 33 49 123 70 151 7 8 17 48 23 89 7 49 17 80 31 95
12 12 21 35 21 51 0 23 13 41 57 83 58 53 58 53 173 48 63 -3 124 -5 135 -4
11 0 445 2 965 4 943 4 945 4 962 25 22 26 14 104 -13 134 -9 11 -21 37 -24
58 -4 21 -15 42 -25 47 -12 6 -20 27 -24 64 -4 30 -14 60 -22 66 -7 7 -19 31
-25 54 -6 22 -19 50 -29 61 -9 11 -20 39 -24 63 -4 24 -15 55 -26 70 -11 15
-23 50 -27 77 -6 50 -30 90 -86 147 -29 28 -29 28 -783 28 -502 0 -762 3 -775
10 -26 15 -24 53 6 88 14 17 25 38 25 49 0 11 11 34 25 53 15 20 25 47 25 66
0 35 18 84 31 84 4 0 11 15 14 33 4 17 18 52 31 77 13 25 24 58 24 73 0 19 14
46 44 80 29 35 42 59 40 74 -3 16 5 29 27 45 29 22 31 26 26 73 -4 41 -1 54
16 72 18 20 19 26 8 49 -10 23 -9 30 8 48 30 32 68 124 76 183 4 31 14 58 26
69 10 9 19 26 19 37 0 10 11 40 23 66 13 25 36 70 50 99 15 28 27 65 27 81 0
17 11 42 25 59 18 22 25 42 25 74 0 35 6 50 25 68 20 19 25 33 25 71 0 37 6
54 25 75 14 15 25 38 25 52 0 13 11 37 25 54 14 16 25 39 25 51 0 11 9 30 20
42 13 14 23 42 27 76 3 30 13 63 23 74 10 11 21 43 25 70 4 28 15 59 25 70 10
11 23 37 28 57 6 21 17 45 26 54 9 8 16 25 16 38 0 12 11 37 25 56 17 23 25
47 25 75 0 31 6 47 25 65 14 14 25 35 25 50 0 14 11 41 25 60 16 22 25 47 25
71 0 27 8 46 25 65 14 15 25 39 25 54 0 15 9 39 20 53 11 14 23 46 27 72 3 26
14 55 25 65 12 11 21 37 25 71 3 34 13 62 26 77 12 12 23 35 25 50 2 15 11 36
21 47 10 11 21 36 25 55 3 19 15 43 25 55 10 11 21 42 25 69 3 29 15 59 26 71
13 14 20 35 20 62 0 30 7 50 25 71 14 17 25 41 25 55 0 14 11 38 25 53 14 15
25 37 25 49 0 12 10 34 21 49 12 16 24 48 27 74 6 56 14 69 53 77 32 7 38 25
14 45 -20 16 -19 25 4 47 10 10 21 33 24 51 4 19 16 45 27 59 35 45 29 163
-10 191 -16 13 -30 32 -30 43 0 11 -28 55 -62 97 -35 41 -68 89 -74 106 -7 22
-21 34 -43 42 -36 12 -51 29 -51 58 0 11 -18 37 -41 58 -45 42 -67 45 -149 23z"/>
<path d="M5647 8407 c-33 -28 -40 -40 -44 -82 -3 -31 -13 -59 -27 -73 -36 -40
-37 -212 -2 -243 16 -14 26 -33 26 -50 0 -16 9 -37 22 -48 14 -14 24 -39 29
-75 4 -34 15 -63 28 -77 12 -13 21 -34 21 -47 0 -13 11 -37 25 -54 17 -20 25
-42 25 -67 0 -24 9 -49 25 -71 14 -19 25 -46 25 -61 0 -16 8 -32 21 -40 15
-11 22 -28 26 -69 4 -38 13 -63 29 -83 13 -16 24 -38 24 -50 0 -11 9 -30 20
-42 11 -12 23 -42 26 -71 4 -27 15 -58 24 -69 10 -11 21 -36 25 -55 4 -19 16
-43 26 -53 11 -10 19 -30 19 -46 0 -16 10 -37 25 -51 14 -14 25 -35 25 -50 0
-15 11 -36 25 -50 20 -19 25 -33 25 -70 0 -37 5 -51 25 -70 16 -15 25 -34 25
-53 0 -19 9 -38 25 -53 18 -17 25 -33 25 -62 0 -24 8 -49 20 -65 11 -14 23
-40 26 -59 4 -18 15 -42 25 -53 9 -11 21 -38 25 -60 3 -22 17 -58 30 -81 13
-22 24 -48 24 -58 0 -9 9 -29 20 -44 10 -15 21 -40 24 -56 3 -16 14 -37 24
-46 11 -11 22 -39 26 -68 3 -27 13 -55 21 -62 9 -7 20 -32 26 -56 6 -23 20
-50 30 -60 11 -10 19 -31 19 -48 0 -17 12 -49 25 -71 14 -22 25 -52 25 -66 0
-14 11 -39 25 -55 14 -16 25 -41 25 -55 0 -14 11 -36 25 -49 15 -14 25 -35 25
-50 0 -15 9 -35 19 -44 12 -11 22 -38 26 -69 4 -29 15 -61 25 -72 10 -11 21
-36 25 -55 4 -19 15 -43 25 -52 10 -10 21 -40 25 -70 4 -31 15 -60 26 -71 11
-10 19 -30 19 -46 0 -16 10 -37 24 -50 16 -15 25 -38 29 -73 4 -29 15 -60 25
-72 11 -12 23 -38 26 -58 4 -21 14 -41 22 -46 9 -5 20 -33 26 -62 5 -30 18
-65 29 -78 10 -14 19 -34 19 -46 0 -12 11 -37 25 -56 14 -19 25 -43 25 -54 0
-11 9 -30 21 -42 11 -12 23 -37 25 -55 3 -19 14 -41 24 -49 11 -9 21 -36 25
-70 5 -35 16 -65 31 -83 13 -16 24 -39 24 -51 0 -13 8 -31 19 -40 10 -9 21
-35 24 -57 3 -22 12 -48 21 -57 8 -10 20 -39 25 -65 6 -26 19 -55 30 -66 11
-11 21 -41 25 -74 5 -35 14 -61 27 -73 10 -9 19 -27 19 -40 0 -12 11 -36 25
-52 14 -17 25 -40 25 -53 0 -12 10 -33 21 -46 13 -13 25 -44 30 -73 4 -28 17
-62 28 -77 12 -14 21 -39 21 -55 0 -16 6 -31 15 -34 8 -3 20 -25 27 -48 6 -22
19 -50 29 -61 10 -11 21 -43 25 -72 4 -31 14 -59 25 -69 10 -9 22 -33 25 -53
4 -20 15 -42 26 -49 10 -8 18 -25 18 -43 0 -17 9 -38 22 -51 14 -14 24 -41 29
-76 5 -33 16 -63 28 -76 12 -12 21 -33 21 -47 0 -16 14 -39 38 -62 38 -37 38
-37 145 -37 98 0 107 2 118 21 15 30 5 93 -20 125 -12 15 -21 39 -21 54 0 15
-10 36 -24 49 -16 16 -25 37 -28 71 -3 28 -14 59 -26 75 -12 15 -22 37 -22 47
0 11 -11 33 -25 50 -14 16 -25 42 -25 58 0 17 -8 33 -20 41 -15 10 -22 30 -27
69 -4 36 -14 65 -30 83 -12 16 -23 39 -23 51 0 13 -9 31 -20 41 -11 10 -20 30
-20 44 0 14 -11 46 -24 71 -13 25 -27 61 -31 80 -4 19 -16 43 -26 53 -11 10
-19 29 -19 42 0 13 -11 36 -24 52 -13 15 -26 47 -29 72 -3 24 -15 57 -26 72
-12 16 -21 38 -21 50 0 11 -11 34 -25 51 -15 18 -25 42 -25 61 0 18 -12 50
-25 72 -14 22 -25 48 -25 58 0 10 -11 33 -25 51 -14 18 -25 43 -25 56 0 13 -9
33 -20 45 -11 12 -23 42 -26 71 -4 27 -15 59 -26 70 -11 12 -22 37 -24 55 -3
19 -12 39 -20 45 -8 7 -20 29 -25 50 -6 22 -19 48 -29 59 -10 11 -21 43 -25
72 -4 31 -14 58 -26 69 -10 9 -19 27 -19 40 0 12 -11 36 -25 52 -14 17 -25 40
-25 52 0 12 -11 35 -25 52 -18 22 -25 41 -25 73 0 32 -7 51 -25 73 -14 17 -25
40 -25 53 0 12 -9 32 -20 44 -12 12 -24 45 -29 72 -4 28 -17 63 -29 78 -12 15
-22 38 -22 50 0 12 -9 30 -20 40 -24 22 -25 33 -4 57 16 17 14 20 -24 62 -23
25 -46 62 -52 85 -6 23 -15 41 -20 41 -5 0 -15 20 -21 44 -6 25 -20 52 -30 62
-10 9 -19 29 -19 44 0 15 -10 36 -25 50 -19 18 -25 34 -25 65 0 28 -8 52 -25
75 -14 19 -25 46 -25 60 0 15 -10 36 -24 49 -16 16 -25 37 -28 71 -3 28 -14
59 -26 75 -12 15 -22 40 -22 56 0 18 -7 32 -19 39 -12 6 -22 26 -26 50 -4 23
-14 44 -25 50 -13 7 -20 27 -25 71 -4 37 -12 62 -21 66 -8 3 -19 25 -25 49 -6
23 -20 50 -30 60 -10 9 -19 29 -19 44 0 15 -10 36 -24 49 -17 16 -25 37 -29
76 -4 35 -12 60 -26 74 -12 12 -21 32 -21 46 0 14 -10 35 -22 47 -14 14 -24
41 -29 76 -5 33 -16 63 -28 76 -12 12 -21 33 -21 45 0 13 -11 36 -25 53 -14
16 -25 40 -25 53 0 13 -8 32 -19 42 -11 11 -22 39 -26 70 -4 30 -17 65 -31 84
-13 18 -24 42 -24 53 0 11 -9 29 -19 40 -11 12 -22 41 -26 66 -3 25 -14 56
-24 70 -10 14 -22 40 -25 57 -4 17 -16 39 -27 49 -10 9 -19 29 -19 44 0 15
-11 38 -23 52 -16 17 -26 43 -30 78 -4 31 -14 62 -25 74 -11 12 -22 43 -26 70
-3 27 -13 57 -22 67 -25 27 -74 131 -74 156 0 12 -9 31 -20 41 -11 10 -24 42
-30 71 -5 29 -19 64 -30 78 -11 14 -20 33 -20 42 0 46 -23 52 -63 18z"/>
<path d="M5398 7780 c-23 -24 -38 -50 -38 -64 0 -14 -11 -37 -25 -52 -19 -20
-25 -38 -25 -70 0 -31 -7 -51 -25 -73 -24 -28 -26 -38 -26 -127 0 -90 2 -99
26 -124 18 -19 25 -37 25 -66 0 -27 8 -51 25 -74 14 -19 25 -46 25 -60 0 -15
9 -35 19 -44 10 -10 22 -32 25 -50 4 -18 15 -41 25 -50 12 -11 21 -38 26 -71
4 -32 13 -60 25 -70 10 -9 21 -33 25 -53 4 -20 15 -42 24 -49 12 -8 20 -31 24
-69 4 -39 12 -62 26 -76 12 -10 21 -30 21 -43 0 -13 11 -36 23 -52 14 -17 27
-48 31 -77 3 -28 15 -59 26 -71 11 -12 20 -32 20 -44 0 -13 11 -36 25 -53 14
-16 25 -41 25 -55 0 -15 11 -36 25 -49 18 -17 25 -33 25 -62 0 -24 8 -49 20
-65 11 -14 23 -40 26 -59 4 -18 15 -42 25 -53 9 -11 21 -38 25 -60 3 -22 17
-58 30 -81 13 -22 24 -50 24 -61 0 -11 9 -30 20 -43 11 -13 20 -33 20 -46 0
-12 11 -35 23 -51 14 -17 27 -48 31 -77 3 -28 15 -59 25 -70 10 -12 22 -34 25
-51 4 -16 16 -39 26 -50 9 -11 20 -42 23 -68 2 -26 12 -56 21 -66 9 -10 22
-36 27 -56 6 -21 19 -47 30 -58 10 -12 19 -32 19 -45 0 -13 11 -37 25 -54 15
-18 25 -42 25 -61 0 -18 12 -50 25 -72 14 -22 25 -50 25 -62 0 -12 8 -30 19
-40 10 -10 22 -34 26 -53 4 -19 15 -43 25 -52 10 -9 21 -40 25 -67 4 -28 15
-62 26 -75 10 -13 19 -33 19 -44 0 -11 11 -33 24 -49 14 -17 26 -48 31 -80 4
-29 13 -57 21 -64 8 -6 19 -31 25 -55 6 -23 20 -50 30 -60 10 -9 19 -29 19
-44 0 -15 10 -36 25 -50 19 -18 25 -34 25 -65 0 -28 8 -52 25 -75 14 -19 25
-44 25 -57 0 -12 8 -30 19 -40 10 -10 22 -34 26 -53 4 -19 15 -43 25 -52 10
-9 21 -40 25 -68 4 -28 13 -56 19 -63 20 -19 36 -54 36 -75 0 -10 8 -27 19
-36 11 -10 21 -37 25 -65 4 -27 15 -59 25 -72 10 -13 21 -40 25 -60 3 -20 15
-44 26 -54 11 -10 20 -28 20 -39 0 -12 11 -43 25 -71 13 -27 25 -61 25 -74 0
-13 11 -36 25 -53 14 -16 25 -39 25 -50 0 -11 11 -33 25 -50 17 -20 25 -42 25
-67 0 -24 9 -49 25 -71 14 -19 25 -46 25 -60 0 -15 9 -35 20 -45 11 -10 22
-33 26 -51 3 -18 14 -40 24 -49 11 -10 21 -38 25 -69 6 -46 15 -61 62 -114 55
-62 55 -62 212 -62 180 0 181 1 181 75 0 42 -5 56 -25 75 -15 14 -25 35 -25
50 0 15 -11 39 -25 54 -19 21 -25 38 -25 75 0 37 -5 52 -23 69 -12 12 -24 34
-25 49 -1 15 -11 36 -21 47 -11 12 -23 44 -27 71 -4 29 -17 62 -30 78 -13 16
-24 38 -24 50 0 11 -9 30 -19 41 -11 12 -21 35 -24 52 -3 18 -14 41 -26 53
-25 25 -28 83 -5 102 18 15 -4 39 -37 39 -18 0 -29 19 -29 50 0 10 -11 31 -24
47 -15 18 -25 45 -28 79 -3 34 -12 58 -26 72 -12 12 -22 33 -22 46 0 12 -11
35 -25 50 -14 15 -25 39 -25 55 0 16 -10 37 -25 51 -19 18 -25 34 -25 65 0 28
-8 52 -25 75 -14 19 -25 44 -25 55 0 12 -9 30 -19 39 -11 10 -23 35 -26 57 -4
22 -15 43 -25 49 -12 7 -20 27 -25 67 -4 37 -14 65 -26 76 -10 10 -19 29 -19
42 0 13 -11 36 -23 52 -14 17 -27 48 -31 77 -3 28 -15 59 -26 71 -11 12 -20
30 -20 41 0 11 -11 35 -25 54 -14 19 -25 46 -25 60 0 16 -10 35 -25 48 -20 18
-25 31 -25 70 0 39 -5 53 -25 72 -14 13 -25 35 -25 49 0 13 -9 34 -20 46 -11
12 -23 42 -26 71 -4 27 -15 58 -25 69 -10 12 -22 36 -25 55 -4 19 -15 43 -25
52 -9 9 -20 32 -24 50 -4 18 -15 42 -25 53 -9 11 -20 42 -24 69 -3 29 -15 59
-26 71 -11 12 -20 31 -20 42 0 12 -11 35 -25 51 -15 18 -25 42 -25 60 0 20 -7
36 -21 46 -15 10 -24 31 -30 65 -4 27 -16 63 -27 78 -11 15 -23 50 -26 77 -4
29 -15 59 -26 71 -11 12 -20 32 -20 44 0 13 -11 36 -25 53 -14 16 -25 42 -25
57 0 15 -9 36 -19 45 -11 10 -23 32 -27 50 -3 17 -14 40 -24 51 -10 11 -21 43
-25 70 -4 28 -16 59 -26 71 -11 11 -21 36 -24 54 -2 18 -12 38 -23 46 -13 9
-21 30 -25 65 -4 28 -13 60 -22 69 -9 10 -21 35 -27 56 -5 22 -19 47 -29 57
-10 10 -19 30 -19 46 0 16 -10 37 -25 51 -19 18 -25 34 -25 65 0 28 -8 52 -25
75 -14 19 -25 45 -25 58 0 14 -11 35 -25 48 -15 14 -25 34 -25 51 0 16 -9 36
-19 45 -13 11 -22 36 -26 72 -5 34 -14 61 -26 72 -10 9 -21 32 -25 50 -3 18
-14 40 -25 50 -12 11 -21 37 -25 76 -4 36 -12 62 -21 65 -7 3 -18 25 -24 49
-6 23 -20 50 -30 60 -10 9 -19 29 -19 43 0 14 -14 53 -30 86 -16 33 -30 65
-30 72 0 6 -6 18 -13 25 -7 7 -20 25 -30 41 -23 35 -25 34 -69 -13z"/>
<path d="M5121 7078 c-11 -18 -26 -40 -35 -48 -8 -9 -18 -31 -21 -50 -3 -19
-14 -48 -24 -65 -10 -16 -22 -48 -26 -70 -3 -22 -16 -50 -28 -63 -31 -33 -32
-160 -1 -194 13 -13 25 -44 29 -73 4 -27 15 -59 25 -70 9 -11 20 -34 23 -52 4
-18 15 -41 25 -51 11 -11 22 -41 26 -69 3 -28 15 -62 26 -76 11 -14 20 -34 20
-45 0 -11 11 -34 25 -50 14 -17 25 -41 25 -54 0 -14 11 -37 25 -52 17 -19 25
-38 25 -65 0 -24 9 -49 25 -71 14 -19 25 -46 25 -60 0 -15 11 -36 25 -50 17
-16 25 -34 25 -59 0 -20 11 -54 25 -76 14 -22 25 -49 25 -61 0 -11 9 -29 19
-38 11 -10 23 -32 27 -50 3 -17 14 -40 24 -51 10 -11 21 -45 25 -77 4 -35 14
-63 25 -73 10 -9 21 -38 25 -66 4 -27 15 -59 25 -72 10 -13 22 -37 26 -53 4
-16 14 -38 24 -49 10 -11 20 -34 23 -52 4 -18 16 -42 27 -53 11 -11 20 -33 20
-48 0 -17 10 -38 24 -51 17 -16 25 -37 28 -72 3 -32 13 -58 27 -72 11 -13 21
-34 21 -47 0 -13 9 -33 20 -45 12 -12 23 -35 26 -51 9 -59 16 -78 35 -102 10
-14 19 -37 19 -52 0 -15 9 -35 19 -44 11 -10 23 -32 27 -50 3 -17 14 -40 24
-51 10 -11 21 -42 25 -70 3 -27 14 -59 24 -70 10 -11 21 -33 25 -49 4 -16 16
-41 27 -54 10 -14 19 -37 19 -52 0 -15 11 -48 25 -74 14 -26 25 -57 25 -70 0
-12 11 -33 25 -46 14 -13 25 -35 25 -49 0 -13 10 -35 21 -48 13 -13 25 -44 30
-73 4 -28 17 -62 28 -77 12 -14 21 -38 21 -54 0 -18 7 -32 19 -39 12 -6 22
-26 26 -49 3 -22 15 -47 26 -57 10 -9 19 -27 19 -40 0 -12 11 -35 23 -51 14
-17 27 -48 31 -77 3 -28 15 -59 26 -71 11 -12 20 -33 20 -47 0 -14 11 -36 23
-50 17 -18 26 -43 31 -83 7 -61 41 -139 75 -169 15 -14 21 -31 21 -61 0 -28 8
-52 25 -75 23 -32 24 -35 9 -58 -18 -27 -7 -42 28 -42 20 0 38 -29 38 -63 0
-13 9 -32 20 -42 11 -10 20 -29 20 -42 0 -13 16 -40 39 -63 39 -41 39 -41 203
-38 163 3 163 3 166 70 2 58 -1 74 -23 111 -14 24 -25 51 -25 60 0 9 -11 33
-25 53 -14 20 -25 49 -25 63 0 14 -11 47 -25 73 -14 26 -25 56 -25 66 0 10 -8
27 -19 36 -10 9 -21 31 -25 47 -3 17 -15 42 -26 56 -11 14 -20 38 -20 53 0 15
-10 36 -24 49 -17 16 -25 37 -28 72 -3 32 -13 58 -27 72 -11 13 -21 35 -21 50
0 14 -10 35 -21 46 -14 12 -25 40 -30 71 -4 28 -17 62 -28 77 -12 14 -21 37
-21 50 0 14 -11 38 -25 55 -14 16 -25 40 -25 52 0 13 -9 31 -20 41 -12 11 -22
37 -26 66 -4 27 -17 63 -30 81 -13 17 -24 44 -24 59 0 16 -7 32 -16 37 -8 5
-20 28 -25 53 -6 24 -21 66 -34 93 -14 28 -25 57 -25 66 0 9 -9 25 -20 35 -11
10 -20 30 -20 45 0 15 -10 36 -24 49 -16 16 -25 37 -28 71 -3 28 -14 59 -26
75 -12 15 -22 38 -22 51 0 12 -11 35 -24 51 -14 17 -25 46 -28 76 -4 30 -14
57 -27 71 -11 12 -21 31 -21 42 0 11 -11 35 -25 54 -14 19 -25 46 -25 62 0 17
-7 31 -19 38 -12 6 -22 26 -26 50 -4 23 -14 44 -25 50 -12 6 -19 27 -24 68 -5
40 -13 65 -26 77 -11 10 -20 28 -20 41 0 12 -11 35 -23 51 -14 16 -27 48 -30
76 -4 27 -16 60 -27 74 -11 14 -20 36 -20 49 0 12 -11 36 -25 52 -14 17 -25
41 -25 54 0 14 -11 46 -25 72 -14 26 -25 55 -25 65 0 9 -11 32 -25 51 -14 19
-25 44 -25 56 0 13 -11 44 -25 70 -14 26 -25 57 -25 69 0 12 -11 35 -25 51
-14 16 -25 41 -25 55 0 14 -9 34 -19 43 -11 10 -23 32 -27 50 -3 17 -14 40
-24 51 -9 11 -20 42 -24 69 -3 28 -15 59 -25 70 -10 12 -21 35 -24 53 -4 18
-16 42 -27 53 -11 11 -20 33 -20 48 0 17 -10 38 -25 52 -20 19 -25 33 -25 70
0 37 -5 51 -25 70 -14 13 -25 34 -25 48 0 13 -11 37 -25 54 -15 18 -25 42 -25
61 0 18 -12 50 -25 72 -14 22 -25 52 -25 66 0 14 -8 34 -19 43 -10 9 -22 31
-25 48 -3 18 -14 40 -24 51 -9 10 -21 44 -27 74 -9 49 -15 59 -48 80 -37 23
-37 23 -56 -9z"/>
<path d="M4830 6371 c-5 -11 -10 -26 -10 -35 0 -8 -11 -27 -25 -42 -14 -15
-25 -37 -25 -49 0 -12 -10 -35 -22 -51 -19 -24 -23 -41 -23 -100 0 -61 3 -76
23 -96 12 -14 22 -36 22 -49 0 -14 11 -36 25 -49 19 -18 25 -34 25 -65 0 -28
8 -52 25 -75 14 -19 25 -45 25 -58 0 -14 10 -34 23 -46 18 -17 24 -34 26 -76
2 -54 41 -141 76 -170 8 -7 17 -28 20 -49 3 -20 17 -58 30 -86 13 -27 28 -61
34 -75 6 -14 16 -33 23 -42 10 -14 10 -22 0 -38 -16 -26 -15 -40 2 -40 8 0 24
-8 36 -18 22 -18 22 -18 2 -42 -19 -24 -19 -24 23 -67 36 -36 44 -51 50 -95 7
-50 31 -93 78 -140 10 -11 17 -33 17 -57 0 -24 8 -48 22 -66 12 -15 25 -49 29
-76 4 -27 17 -62 28 -78 12 -16 21 -38 21 -48 0 -11 11 -34 25 -53 14 -19 25
-44 25 -55 0 -12 9 -30 20 -40 11 -10 23 -35 26 -56 4 -21 15 -46 25 -55 11
-9 19 -29 19 -44 0 -15 10 -36 24 -49 17 -16 25 -37 28 -72 3 -32 13 -58 27
-72 11 -13 21 -34 21 -46 0 -13 11 -36 23 -51 17 -20 26 -46 30 -89 7 -63 38
-131 77 -166 14 -13 20 -31 20 -60 0 -28 8 -52 25 -75 14 -19 25 -43 25 -54 0
-11 9 -29 20 -41 12 -12 24 -45 29 -72 4 -28 17 -63 29 -78 12 -15 22 -40 22
-55 0 -15 9 -35 19 -44 10 -10 22 -32 25 -50 4 -18 15 -41 25 -50 12 -11 21
-38 26 -71 3 -29 13 -59 21 -65 7 -7 19 -31 26 -54 6 -22 20 -49 30 -59 10
-10 18 -30 18 -46 0 -16 10 -37 24 -50 15 -14 25 -37 28 -66 3 -24 15 -57 27
-73 11 -17 21 -40 21 -52 0 -12 11 -35 25 -52 14 -16 25 -41 25 -54 0 -15 14
-39 35 -60 35 -35 35 -35 147 -32 113 3 113 3 116 51 2 34 -3 57 -16 80 -11
18 -22 45 -26 61 -4 15 -15 40 -25 55 -11 14 -22 46 -25 70 -4 24 -15 55 -26
68 -11 14 -22 40 -26 58 -3 19 -15 41 -25 51 -10 9 -19 28 -19 42 0 14 -10 36
-21 49 -13 13 -25 44 -30 73 -4 28 -17 62 -28 77 -12 14 -21 36 -21 48 0 12
-11 35 -25 51 -18 21 -25 41 -25 70 0 27 -8 51 -25 73 -13 19 -27 55 -31 80
-4 25 -15 57 -25 70 -11 13 -19 31 -19 40 0 10 -11 32 -25 51 -14 19 -25 44
-25 56 0 12 -7 27 -15 34 -9 7 -20 32 -26 56 -6 23 -20 50 -30 60 -10 9 -19
29 -19 44 0 15 -10 36 -24 49 -16 16 -25 37 -28 71 -3 28 -14 59 -26 75 -12
15 -22 38 -22 51 0 13 -11 35 -25 50 -14 15 -25 38 -25 52 0 13 -11 37 -25 54
-17 20 -25 42 -25 67 0 24 -9 49 -25 71 -14 19 -25 44 -25 57 0 13 -11 45 -25
71 -14 26 -25 55 -25 64 0 9 -11 34 -25 54 -15 23 -25 51 -25 73 0 24 -9 49
-25 71 -14 19 -25 41 -25 51 0 9 -8 27 -19 40 -10 13 -21 38 -25 55 -4 18 -16
40 -27 50 -10 9 -19 30 -19 45 0 16 -9 37 -21 48 -14 12 -25 40 -30 71 -4 28
-17 62 -28 77 -12 14 -21 38 -21 53 0 15 -10 36 -24 49 -17 16 -25 37 -29 76
-4 35 -12 60 -26 74 -12 12 -21 32 -21 45 0 12 -11 35 -25 50 -15 16 -25 39
-25 57 0 17 -6 32 -15 35 -8 3 -20 25 -27 48 -6 22 -19 50 -28 61 -10 11 -20
42 -24 69 -3 29 -15 59 -26 71 -11 12 -20 33 -20 48 0 16 -10 36 -25 49 -17
14 -25 32 -25 52 0 17 -11 52 -25 78 -14 26 -25 56 -25 67 0 11 -11 33 -25 49
-14 17 -25 41 -25 54 0 14 -11 35 -25 48 -20 18 -25 33 -25 70 0 40 -5 51 -38
83 -44 43 -48 44 -62 18z"/>
<path d="M6234 2099 c-22 -35 -22 -40 -9 -66 8 -15 15 -39 15 -52 0 -24 60
-92 93 -104 42 -16 0 -27 -102 -27 -109 0 -109 0 -149 -41 -45 -45 -49 -85
-11 -122 11 -10 19 -29 19 -42 0 -16 15 -39 41 -65 41 -40 41 -40 1440 -40
1106 0 1400 3 1408 13 6 6 22 25 36 41 25 29 25 29 6 50 -11 12 -23 38 -26 59
-8 40 -48 97 -69 97 -7 0 -23 11 -36 25 -23 25 -23 25 -1259 27 -816 2 -1236
6 -1236 13 0 7 373 12 1090 15 600 3 1096 9 1103 13 25 17 15 111 -17 151 -79
99 29 91 -1210 92 -1103 0 -1103 0 -1127 -37z"/>
<path d="M9030 1513 c-20 -10 -320 -13 -1568 -13 -1543 0 -1543 0 -1577 -33
-43 -42 -51 -129 -15 -162 11 -10 23 -33 26 -52 8 -41 69 -104 130 -133 63
-31 3467 -27 3490 4 24 33 19 155 -8 183 -20 22 -21 24 -3 43 22 25 14 46 -22
54 -15 4 -37 16 -48 27 -43 41 -84 69 -101 69 -11 1 -32 7 -49 14 -25 10 -36
10 -62 -1 -41 -17 -95 -17 -136 0 -26 11 -36 11 -57 0z"/>
</g></svg>